<svg width="40" height="40" viewBox="0 0 40 40" fill="none" xmlns="http://www.w3.org/2000/svg">
<rect x="0.5" y="0.5" width="39" height="39" fill="#050402"/>
<path fill-rule="evenodd" clip-rule="evenodd" d="M32.4565 19.0443C32.4539 25.6 27.121 30.9342 20.564 30.9368H20.5591C18.5687 30.9361 16.6129 30.4368 14.8759 29.4893L8.57141 31.1431L10.2586 24.9804C9.21786 23.1768 8.67023 21.131 8.67112 19.0349C8.67373 12.4778 14.0088 7.14307 20.5639 7.14307C23.7453 7.14444 26.7313 8.38295 28.9766 10.6309C31.2219 12.8787 32.4578 15.8667 32.4565 19.0443ZM11.4268 28.3176L15.168 27.3362L15.5289 27.5504C17.0466 28.451 18.7862 28.9276 20.56 28.9283H20.564C26.0121 28.9283 30.4464 24.4939 30.4485 19.0436C30.4496 16.4023 29.4224 13.9189 27.5561 12.0505C25.6899 10.1821 23.2081 9.1526 20.5679 9.15168C15.1155 9.15168 10.6812 13.5856 10.6791 19.0355C10.6783 20.9033 11.2009 22.7223 12.1904 24.296L12.4254 24.67L11.4268 28.3176Z" fill="#BB8C5F"/>
<path d="M26.3201 22.6156C26.2459 22.4917 26.0478 22.4173 25.7507 22.2685C25.4535 22.1198 23.9926 21.401 23.7201 21.3017C23.4478 21.2026 23.2496 21.1531 23.0515 21.4504C22.8535 21.7479 22.284 22.4173 22.1106 22.6156C21.9373 22.8139 21.7639 22.8388 21.4669 22.69C21.1697 22.5413 20.2122 22.2275 19.0772 21.2151C18.1938 20.4271 17.5974 19.454 17.4241 19.1565C17.2508 18.859 17.4056 18.6983 17.5544 18.5501C17.6881 18.4169 17.8516 18.2029 18.0001 18.0295C18.1487 17.856 18.1982 17.732 18.2973 17.5338C18.3963 17.3354 18.3468 17.1619 18.2725 17.0132C18.1982 16.8644 17.6039 15.4018 17.3563 14.8068C17.1151 14.2273 16.8701 14.3058 16.6877 14.2967C16.5146 14.288 16.3163 14.2861 16.1182 14.2861C15.9201 14.2861 15.5982 14.3605 15.3258 14.658C15.0534 14.9555 14.2858 15.6744 14.2858 17.137C14.2858 18.5997 15.3505 20.0127 15.4991 20.211C15.6477 20.4094 17.5945 23.4108 20.5754 24.6979C21.2844 25.0041 21.8379 25.1869 22.2695 25.3239C22.9813 25.5501 23.6291 25.5182 24.1411 25.4416C24.712 25.3563 25.8992 24.7228 26.1469 24.0287C26.3944 23.3345 26.3944 22.7395 26.3201 22.6156Z" fill="#BB8C5F"/>
<rect x="0.5" y="0.5" width="39" height="39" stroke="#BB8C5F"/>
</svg>
