<svg width="40" height="40" viewBox="0 0 40 40" fill="none" xmlns="http://www.w3.org/2000/svg">
<rect x="0.5" y="0.5" width="39" height="39" fill="#050402"/>
<path d="M16.6736 24.0683L16.3333 29.1664C16.8333 29.1664 17.0542 28.9377 17.3333 28.6664L19.7355 26.3305L24.7333 30.0229C25.653 30.5304 26.3168 30.2676 26.5459 29.169L29.8268 13.7085C30.1627 12.3618 29.3134 11.751 28.4335 12.1505L9.16855 19.579C7.85353 20.1064 7.8612 20.8401 8.92885 21.167L13.8727 22.71L25.3182 15.4892C25.8585 15.1615 26.3544 15.3377 25.9474 15.6989L16.6733 24.0681L16.6736 24.0683Z" fill="#BB8C5F"/>
<rect x="0.5" y="0.5" width="39" height="39" stroke="#BB8C5F"/>
</svg>
