<svg width="192" height="63" viewBox="0 0 192 63" fill="none" xmlns="http://www.w3.org/2000/svg">
<path d="M35.196 47.928H37.772V57H38.542V47.928H41.118V47.2H35.196V47.928ZM45.3819 53.71H50.4079L50.1559 52.982H45.6339L45.3819 53.71ZM47.8739 48.6L49.8059 53.276L49.8759 53.458L51.3319 57H52.1999L47.8739 46.822L43.5479 57H44.4159L45.8859 53.402L45.9699 53.234L47.8739 48.6ZM55.0339 47.928H57.6099V57H58.3799V47.928H60.9559V47.2H55.0339V47.928ZM65.2741 47.928H67.8501V57H68.6201V47.928H71.1961V47.2H65.2741V47.928ZM75.6253 52.1C75.6253 51.2787 75.7979 50.5507 76.1433 49.916C76.4979 49.272 76.9786 48.768 77.5853 48.404C78.2013 48.0307 78.9013 47.844 79.6853 47.844C80.4693 47.844 81.1646 48.0307 81.7713 48.404C82.3873 48.768 82.8679 49.272 83.2133 49.916C83.5586 50.5507 83.7313 51.2787 83.7313 52.1C83.7313 52.912 83.5586 53.64 83.2133 54.284C82.8679 54.928 82.3873 55.4367 81.7713 55.81C81.1646 56.174 80.4693 56.356 79.6853 56.356C78.9013 56.356 78.2013 56.174 77.5853 55.81C76.9786 55.4367 76.4979 54.928 76.1433 54.284C75.7979 53.64 75.6253 52.912 75.6253 52.1ZM74.8133 52.1C74.8133 52.8187 74.9346 53.486 75.1773 54.102C75.4199 54.7087 75.7606 55.2407 76.1993 55.698C76.6379 56.146 77.1513 56.496 77.7393 56.748C78.3366 57 78.9853 57.126 79.6853 57.126C80.3853 57.126 81.0293 57 81.6173 56.748C82.2146 56.496 82.7326 56.146 83.1713 55.698C83.6099 55.2407 83.9506 54.7087 84.1933 54.102C84.4359 53.486 84.5573 52.8187 84.5573 52.1C84.5573 51.3813 84.4359 50.7187 84.1933 50.112C83.9506 49.496 83.6099 48.964 83.1713 48.516C82.7326 48.0587 82.2146 47.704 81.6173 47.452C81.0293 47.2 80.3853 47.074 79.6853 47.074C78.9853 47.074 78.3366 47.2 77.7393 47.452C77.1513 47.704 76.6379 48.0587 76.1993 48.516C75.7606 48.964 75.4199 49.496 75.1773 50.112C74.9346 50.7187 74.8133 51.3813 74.8133 52.1ZM90.1038 52.1C90.1038 51.2787 90.2764 50.5507 90.6218 49.916C90.9764 49.272 91.4571 48.768 92.0638 48.404C92.6798 48.0307 93.3798 47.844 94.1638 47.844C94.9478 47.844 95.6431 48.0307 96.2498 48.404C96.8658 48.768 97.3464 49.272 97.6918 49.916C98.0371 50.5507 98.2098 51.2787 98.2098 52.1C98.2098 52.912 98.0371 53.64 97.6918 54.284C97.3464 54.928 96.8658 55.4367 96.2498 55.81C95.6431 56.174 94.9478 56.356 94.1638 56.356C93.3798 56.356 92.6798 56.174 92.0638 55.81C91.4571 55.4367 90.9764 54.928 90.6218 54.284C90.2764 53.64 90.1038 52.912 90.1038 52.1ZM89.2918 52.1C89.2918 52.8187 89.4131 53.486 89.6558 54.102C89.8984 54.7087 90.2391 55.2407 90.6778 55.698C91.1164 56.146 91.6298 56.496 92.2178 56.748C92.8151 57 93.4638 57.126 94.1638 57.126C94.8638 57.126 95.5078 57 96.0958 56.748C96.6931 56.496 97.2111 56.146 97.6498 55.698C98.0884 55.2407 98.4291 54.7087 98.6718 54.102C98.9144 53.486 99.0358 52.8187 99.0358 52.1C99.0358 51.3813 98.9144 50.7187 98.6718 50.112C98.4291 49.496 98.0884 48.964 97.6498 48.516C97.2111 48.0587 96.6931 47.704 96.0958 47.452C95.5078 47.2 94.8638 47.074 94.1638 47.074C93.4638 47.074 92.8151 47.2 92.2178 47.452C91.6298 47.704 91.1164 48.0587 90.6778 48.516C90.2391 48.964 89.8984 49.496 89.6558 50.112C89.4131 50.7187 89.2918 51.3813 89.2918 52.1ZM112.098 54.172L111.468 54.564C111.626 55.0213 111.85 55.446 112.14 55.838C112.429 56.23 112.788 56.5427 113.218 56.776C113.647 57.0093 114.146 57.126 114.716 57.126C115.117 57.126 115.49 57.0653 115.836 56.944C116.181 56.8133 116.48 56.6313 116.732 56.398C116.993 56.1553 117.194 55.8707 117.334 55.544C117.483 55.2173 117.558 54.8533 117.558 54.452C117.558 54.0227 117.483 53.654 117.334 53.346C117.184 53.0287 116.988 52.758 116.746 52.534C116.512 52.31 116.251 52.1233 115.962 51.974C115.672 51.8247 115.392 51.6987 115.122 51.596C114.599 51.4093 114.16 51.2133 113.806 51.008C113.451 50.7933 113.185 50.5553 113.008 50.294C112.83 50.0327 112.742 49.72 112.742 49.356C112.742 48.9173 112.896 48.5533 113.204 48.264C113.512 47.9653 113.95 47.816 114.52 47.816C114.949 47.816 115.308 47.9 115.598 48.068C115.887 48.2267 116.125 48.4273 116.312 48.67C116.508 48.9127 116.657 49.16 116.76 49.412L117.432 49.034C117.301 48.7167 117.11 48.4087 116.858 48.11C116.606 47.8113 116.288 47.564 115.906 47.368C115.532 47.172 115.084 47.074 114.562 47.074C114.058 47.074 113.605 47.1767 113.204 47.382C112.802 47.578 112.49 47.858 112.266 48.222C112.042 48.5767 111.93 48.9873 111.93 49.454C111.93 49.874 112.009 50.2333 112.168 50.532C112.336 50.8307 112.55 51.0873 112.812 51.302C113.073 51.5073 113.353 51.6847 113.652 51.834C113.96 51.974 114.254 52.0953 114.534 52.198C114.907 52.338 115.262 52.5013 115.598 52.688C115.943 52.8653 116.223 53.0987 116.438 53.388C116.652 53.6773 116.76 54.06 116.76 54.536C116.76 55.0773 116.578 55.5253 116.214 55.88C115.859 56.2253 115.364 56.398 114.73 56.398C114.263 56.398 113.862 56.3 113.526 56.104C113.19 55.8987 112.905 55.628 112.672 55.292C112.448 54.956 112.256 54.5827 112.098 54.172ZM123.275 52.03H129.883V51.302H123.275V52.03ZM129.365 47.2V57H130.149V47.2H129.365ZM122.869 47.2V57H123.639V47.2H122.869ZM136.26 52.1C136.26 51.2787 136.433 50.5507 136.778 49.916C137.133 49.272 137.613 48.768 138.22 48.404C138.836 48.0307 139.536 47.844 140.32 47.844C141.104 47.844 141.799 48.0307 142.406 48.404C143.022 48.768 143.503 49.272 143.848 49.916C144.193 50.5507 144.366 51.2787 144.366 52.1C144.366 52.912 144.193 53.64 143.848 54.284C143.503 54.928 143.022 55.4367 142.406 55.81C141.799 56.174 141.104 56.356 140.32 56.356C139.536 56.356 138.836 56.174 138.22 55.81C137.613 55.4367 137.133 54.928 136.778 54.284C136.433 53.64 136.26 52.912 136.26 52.1ZM135.448 52.1C135.448 52.8187 135.569 53.486 135.812 54.102C136.055 54.7087 136.395 55.2407 136.834 55.698C137.273 56.146 137.786 56.496 138.374 56.748C138.971 57 139.62 57.126 140.32 57.126C141.02 57.126 141.664 57 142.252 56.748C142.849 56.496 143.367 56.146 143.806 55.698C144.245 55.2407 144.585 54.7087 144.828 54.102C145.071 53.486 145.192 52.8187 145.192 52.1C145.192 51.3813 145.071 50.7187 144.828 50.112C144.585 49.496 144.245 48.964 143.806 48.516C143.367 48.0587 142.849 47.704 142.252 47.452C141.664 47.2 141.02 47.074 140.32 47.074C139.62 47.074 138.971 47.2 138.374 47.452C137.786 47.704 137.273 48.0587 136.834 48.516C136.395 48.964 136.055 49.496 135.812 50.112C135.569 50.7187 135.448 51.3813 135.448 52.1ZM150.487 47.2V57H151.257V47.2H150.487ZM150.921 47.928H152.783C153.501 47.928 154.085 48.1147 154.533 48.488C154.981 48.852 155.205 49.3887 155.205 50.098C155.205 50.798 154.981 51.3347 154.533 51.708C154.085 52.0813 153.501 52.268 152.783 52.268H150.921V52.996H152.783C153.399 52.996 153.945 52.884 154.421 52.66C154.906 52.4267 155.289 52.0907 155.569 51.652C155.849 51.2133 155.989 50.6953 155.989 50.098C155.989 49.4913 155.849 48.9733 155.569 48.544C155.289 48.1147 154.906 47.7833 154.421 47.55C153.945 47.3167 153.399 47.2 152.783 47.2H150.921V47.928Z" fill="#BB8C5F"/>
<path d="M0.113249 38L3 40.8868L5.88675 38L3 35.1133L0.113249 38ZM191.887 38L189 35.1132L186.113 38L189 40.8868L191.887 38ZM3 38.5L189 38.5L189 37.5L3 37.5L3 38.5Z" fill="#BB8C5F"/>
<path d="M28.49 28.7H28.64C28.78 28.7 28.91 28.64 29.03 28.52C29.15 28.4 29.25 28.26 29.33 28.1C29.43 27.94 29.5 27.77 29.54 27.59C29.58 27.39 29.6 27.21 29.6 27.05V11.27L21.86 29.33L14.51 12.2V27.05C14.51 27.21 14.53 27.39 14.57 27.59C14.61 27.77 14.67 27.94 14.75 28.1C14.85 28.26 14.96 28.4 15.08 28.52C15.2 28.64 15.34 28.7 15.5 28.7H15.65V29H12.38V28.7H12.53C12.67 28.7 12.8 28.64 12.92 28.52C13.04 28.4 13.14 28.26 13.22 28.1C13.3 27.94 13.36 27.77 13.4 27.59C13.44 27.39 13.46 27.21 13.46 27.05V11.06C13.46 10.92 13.44 10.76 13.4 10.58C13.36 10.4 13.3 10.23 13.22 10.07C13.14 9.91 13.04 9.78 12.92 9.68C12.8 9.56 12.67 9.5 12.53 9.5H12.38V9.2H15.44L22.4 25.61L29.36 9.2H32.75V9.5H32.6C32.44 9.5 32.3 9.56 32.18 9.68C32.06 9.78 31.95 9.91 31.85 10.07C31.77 10.23 31.71 10.4 31.67 10.58C31.63 10.76 31.61 10.92 31.61 11.06V27.05C31.61 27.21 31.63 27.39 31.67 27.59C31.71 27.77 31.77 27.94 31.85 28.1C31.95 28.26 32.06 28.4 32.18 28.52C32.3 28.64 32.44 28.7 32.6 28.7H32.75V29H28.49V28.7ZM39.7503 28.7H39.9003V29H35.6703V28.7H35.8203C35.9603 28.7 36.0903 28.64 36.2103 28.52C36.3303 28.4 36.4303 28.26 36.5103 28.1C36.6103 27.94 36.6803 27.77 36.7203 27.59C36.7603 27.39 36.7803 27.21 36.7803 27.05V11.06C36.7803 10.92 36.7603 10.76 36.7203 10.58C36.6803 10.4 36.6103 10.23 36.5103 10.07C36.4303 9.91 36.3303 9.78 36.2103 9.68C36.0903 9.56 35.9603 9.5 35.8203 9.5H35.6703V9.2H40.8903C42.8903 9.2 44.4303 9.59 45.5103 10.37C46.6103 11.15 47.1603 12.3 47.1603 13.82C47.1603 14.58 47.0303 15.25 46.7703 15.83C46.5303 16.39 46.2003 16.88 45.7803 17.3C45.3603 17.7 44.8603 18.03 44.2803 18.29C43.7203 18.53 43.1203 18.71 42.4803 18.83L44.6403 22.13C45.1603 22.93 45.6903 23.72 46.2303 24.5C46.7703 25.26 47.3003 26.05 47.8203 26.87C47.9603 27.07 48.1103 27.28 48.2703 27.5C48.4503 27.72 48.6303 27.92 48.8103 28.1C49.0103 28.28 49.2103 28.43 49.4103 28.55C49.6303 28.65 49.8503 28.7 50.0703 28.7V29H48.7803C47.9803 29 47.3203 28.81 46.8003 28.43C46.3003 28.03 45.8803 27.57 45.5403 27.05C44.6403 25.73 43.7403 24.39 42.8403 23.03C41.9603 21.67 41.0803 20.33 40.2003 19.01C39.9803 18.99 39.7403 18.97 39.4803 18.95C39.2403 18.91 39.0103 18.87 38.7903 18.83V27.05C38.7903 27.21 38.8103 27.39 38.8503 27.59C38.8903 27.77 38.9503 27.94 39.0303 28.1C39.1303 28.26 39.2303 28.4 39.3303 28.52C39.4503 28.64 39.5903 28.7 39.7503 28.7ZM38.7903 10.22V17.84H38.9403C39.1003 17.86 39.3503 17.88 39.6903 17.9C40.0503 17.9 40.4903 17.9 41.0103 17.9C41.4303 17.9 41.8703 17.84 42.3303 17.72C42.8103 17.58 43.2503 17.36 43.6503 17.06C44.0703 16.74 44.4103 16.33 44.6703 15.83C44.9503 15.33 45.0903 14.7 45.0903 13.94C45.0903 13.18 44.9403 12.56 44.6403 12.08C44.3603 11.6 43.9603 11.22 43.4403 10.94C42.9403 10.66 42.3303 10.47 41.6103 10.37C40.8903 10.27 40.1003 10.22 39.2403 10.22H38.7903ZM52.0815 27.71C52.0815 27.31 52.2115 26.97 52.4715 26.69C52.7515 26.41 53.0915 26.27 53.4915 26.27C53.8915 26.27 54.2315 26.41 54.5115 26.69C54.7915 26.97 54.9315 27.31 54.9315 27.71C54.9315 28.11 54.7915 28.45 54.5115 28.73C54.2315 28.99 53.8915 29.12 53.4915 29.12C53.0915 29.12 52.7515 28.99 52.4715 28.73C52.2115 28.45 52.0815 28.11 52.0815 27.71ZM65.6696 28.7H65.8196C65.9596 28.7 66.0896 28.64 66.2096 28.52C66.3296 28.4 66.4296 28.26 66.5096 28.1C66.6096 27.94 66.6796 27.77 66.7196 27.59C66.7596 27.39 66.7796 27.21 66.7796 27.05V11.06C66.7796 10.92 66.7596 10.76 66.7196 10.58C66.6796 10.4 66.6196 10.23 66.5396 10.07C66.4596 9.91 66.3596 9.78 66.2396 9.68C66.1196 9.56 65.9796 9.5 65.8196 9.5H65.6696V9.2H71.4596C73.0396 9.2 74.4596 9.48 75.7196 10.04C76.9796 10.58 78.0396 11.32 78.8996 12.26C79.7796 13.18 80.4496 14.24 80.9096 15.44C81.3696 16.64 81.5996 17.89 81.5996 19.19C81.5996 20.41 81.3796 21.61 80.9396 22.79C80.4996 23.95 79.8396 24.99 78.9596 25.91C78.0796 26.83 76.9796 27.58 75.6596 28.16C74.3396 28.72 72.8096 29 71.0696 29H65.6696V28.7ZM79.5596 19.64C79.5596 18.36 79.3296 17.15 78.8696 16.01C78.4096 14.87 77.7596 13.88 76.9196 13.04C76.0996 12.18 75.1196 11.5 73.9796 11C72.8596 10.5 71.6396 10.25 70.3196 10.25H68.7896V27.95H70.3796C71.4596 27.95 72.5396 27.79 73.6196 27.47C74.7196 27.13 75.7096 26.62 76.5896 25.94C77.4696 25.24 78.1796 24.37 78.7196 23.33C79.2796 22.29 79.5596 21.06 79.5596 19.64ZM88.2659 28.7H88.4159V29H84.1859V28.7H84.3359C84.4759 28.7 84.6059 28.64 84.7259 28.52C84.8459 28.4 84.9459 28.26 85.0259 28.1C85.1259 27.94 85.1959 27.77 85.2359 27.59C85.2759 27.39 85.2959 27.21 85.2959 27.05V11.06C85.2959 10.92 85.2759 10.76 85.2359 10.58C85.1959 10.4 85.1259 10.23 85.0259 10.07C84.9459 9.91 84.8459 9.78 84.7259 9.68C84.6059 9.56 84.4759 9.5 84.3359 9.5H84.1859V9.2H89.4059C91.4059 9.2 92.9459 9.59 94.0259 10.37C95.1259 11.15 95.6759 12.3 95.6759 13.82C95.6759 14.58 95.5459 15.25 95.2859 15.83C95.0459 16.39 94.7159 16.88 94.2959 17.3C93.8759 17.7 93.3759 18.03 92.7959 18.29C92.2359 18.53 91.6359 18.71 90.9959 18.83L93.1559 22.13C93.6759 22.93 94.2059 23.72 94.7459 24.5C95.2859 25.26 95.8159 26.05 96.3359 26.87C96.4759 27.07 96.6259 27.28 96.7859 27.5C96.9659 27.72 97.1459 27.92 97.3259 28.1C97.5259 28.28 97.7259 28.43 97.9259 28.55C98.1459 28.65 98.3659 28.7 98.5859 28.7V29H97.2959C96.4959 29 95.8359 28.81 95.3159 28.43C94.8159 28.03 94.3959 27.57 94.0559 27.05C93.1559 25.73 92.2559 24.39 91.3559 23.03C90.4759 21.67 89.5959 20.33 88.7159 19.01C88.4959 18.99 88.2559 18.97 87.9959 18.95C87.7559 18.91 87.5259 18.87 87.3059 18.83V27.05C87.3059 27.21 87.3259 27.39 87.3659 27.59C87.4059 27.77 87.4659 27.94 87.5459 28.1C87.6459 28.26 87.7459 28.4 87.8459 28.52C87.9659 28.64 88.1059 28.7 88.2659 28.7ZM87.3059 10.22V17.84H87.4559C87.6159 17.86 87.8659 17.88 88.2059 17.9C88.5659 17.9 89.0059 17.9 89.5259 17.9C89.9459 17.9 90.3859 17.84 90.8459 17.72C91.3259 17.58 91.7659 17.36 92.1659 17.06C92.5859 16.74 92.9259 16.33 93.1859 15.83C93.4659 15.33 93.6059 14.7 93.6059 13.94C93.6059 13.18 93.4559 12.56 93.1559 12.08C92.8759 11.6 92.4759 11.22 91.9559 10.94C91.4559 10.66 90.8459 10.47 90.1259 10.37C89.4059 10.27 88.6159 10.22 87.7559 10.22H87.3059ZM100.507 9.2H104.797V9.5H104.647C104.507 9.5 104.377 9.56 104.257 9.68C104.137 9.78 104.037 9.91 103.957 10.07C103.877 10.21 103.807 10.38 103.747 10.58C103.707 10.76 103.687 10.92 103.687 11.06V27.05C103.687 27.21 103.707 27.39 103.747 27.59C103.787 27.77 103.847 27.94 103.927 28.1C104.027 28.26 104.127 28.4 104.227 28.52C104.347 28.64 104.487 28.7 104.647 28.7H104.797V29H100.507V28.7H100.657C100.817 28.7 100.957 28.65 101.077 28.55C101.197 28.43 101.297 28.29 101.377 28.13C101.477 27.95 101.547 27.77 101.587 27.59C101.627 27.39 101.647 27.21 101.647 27.05V11.06C101.647 10.92 101.627 10.76 101.587 10.58C101.547 10.4 101.477 10.23 101.377 10.07C101.297 9.91 101.197 9.78 101.077 9.68C100.957 9.56 100.817 9.5 100.657 9.5H100.507V9.2ZM119.832 23.69C119.832 24.69 119.632 25.55 119.232 26.27C118.832 26.97 118.312 27.54 117.672 27.98C117.052 28.42 116.342 28.74 115.542 28.94C114.762 29.14 113.982 29.24 113.202 29.24C112.402 29.24 111.712 29.16 111.132 29C110.552 28.84 110.022 28.69 109.542 28.55C109.222 28.45 108.932 28.37 108.672 28.31C108.412 28.23 108.152 28.19 107.892 28.19V24.77H108.192C108.192 25.53 108.382 26.14 108.762 26.6C109.162 27.04 109.622 27.38 110.142 27.62C110.662 27.86 111.182 28.02 111.702 28.1C112.222 28.16 112.602 28.19 112.842 28.19C113.702 28.19 114.442 28.07 115.062 27.83C115.682 27.57 116.192 27.24 116.592 26.84C116.992 26.42 117.282 25.96 117.462 25.46C117.662 24.96 117.762 24.45 117.762 23.93C117.762 23.27 117.622 22.72 117.342 22.28C117.062 21.82 116.692 21.42 116.232 21.08C115.792 20.74 115.282 20.45 114.702 20.21C114.122 19.97 113.532 19.73 112.932 19.49C112.252 19.23 111.582 18.96 110.922 18.68C110.262 18.4 109.672 18.06 109.152 17.66C108.632 17.24 108.212 16.75 107.892 16.19C107.572 15.61 107.412 14.9 107.412 14.06C107.412 13.18 107.582 12.42 107.922 11.78C108.262 11.12 108.712 10.58 109.272 10.16C109.852 9.74 110.502 9.43 111.222 9.23C111.962 9.01 112.712 8.9 113.472 8.9C113.992 8.9 114.482 8.94 114.942 9.02C115.402 9.08 115.842 9.16 116.262 9.26C116.602 9.34 116.932 9.41 117.252 9.47C117.572 9.51 117.882 9.53 118.182 9.53V12.62H117.882C117.842 11.58 117.432 10.88 116.652 10.52C115.872 10.14 114.792 9.95 113.412 9.95C112.612 9.95 111.952 10.09 111.432 10.37C110.932 10.63 110.532 10.96 110.232 11.36C109.932 11.74 109.722 12.16 109.602 12.62C109.502 13.06 109.452 13.45 109.452 13.79C109.452 14.35 109.572 14.83 109.812 15.23C110.072 15.63 110.412 15.98 110.832 16.28C111.252 16.58 111.732 16.85 112.272 17.09C112.832 17.33 113.412 17.56 114.012 17.78C114.692 18.04 115.382 18.32 116.082 18.62C116.782 18.92 117.402 19.29 117.942 19.73C118.502 20.17 118.952 20.71 119.292 21.35C119.652 21.99 119.832 22.77 119.832 23.69ZM126.529 28.7H126.679V29H122.389V28.7H122.539C122.699 28.7 122.839 28.64 122.959 28.52C123.079 28.4 123.179 28.26 123.259 28.1C123.359 27.94 123.429 27.77 123.469 27.59C123.509 27.39 123.529 27.21 123.529 27.05V11.06C123.529 10.92 123.509 10.76 123.469 10.58C123.429 10.4 123.359 10.23 123.259 10.07C123.179 9.91 123.079 9.78 122.959 9.68C122.839 9.56 122.709 9.5 122.569 9.5H122.419V9.2H126.709V9.5H126.559C126.399 9.5 126.259 9.56 126.139 9.68C126.019 9.78 125.909 9.91 125.809 10.07C125.729 10.23 125.659 10.4 125.599 10.58C125.559 10.76 125.539 10.92 125.539 11.06V18.02L133.159 10.46C133.279 10.32 133.339 10.16 133.339 9.98C133.339 9.66 133.219 9.5 132.979 9.5H132.829V9.2H136.489V9.5H136.339C136.059 9.5 135.769 9.6 135.469 9.8C135.169 10 134.869 10.25 134.569 10.55L128.269 16.82L134.899 26.87C134.919 26.91 135.009 27.03 135.169 27.23C135.329 27.43 135.519 27.64 135.739 27.86C135.979 28.08 136.239 28.28 136.519 28.46C136.819 28.62 137.119 28.7 137.419 28.7V29H136.699C136.099 29 135.589 28.97 135.169 28.91C134.769 28.83 134.419 28.71 134.119 28.55C133.819 28.39 133.549 28.19 133.309 27.95C133.089 27.71 132.859 27.41 132.619 27.05L126.799 18.26L125.539 19.55V27.05C125.539 27.21 125.559 27.38 125.599 27.56C125.659 27.74 125.729 27.92 125.809 28.1C125.889 28.26 125.989 28.4 126.109 28.52C126.229 28.64 126.369 28.7 126.529 28.7ZM139.381 28.7H139.531C139.691 28.7 139.831 28.65 139.951 28.55C140.071 28.43 140.171 28.29 140.251 28.13C140.351 27.97 140.421 27.8 140.461 27.62C140.521 27.44 140.551 27.27 140.551 27.11V11.06C140.551 10.92 140.521 10.76 140.461 10.58C140.421 10.4 140.351 10.23 140.251 10.07C140.171 9.91 140.071 9.78 139.951 9.68C139.831 9.56 139.691 9.5 139.531 9.5H139.381V9.2H150.931V11.99H150.631C150.591 11.53 150.411 11.13 150.091 10.79C149.771 10.43 149.271 10.25 148.591 10.25H142.561V17.84H147.541C148.001 17.84 148.381 17.7 148.681 17.42C149.001 17.14 149.161 16.81 149.161 16.43H149.461V20.18H149.161C149.161 19.82 149.011 19.51 148.711 19.25C148.411 18.99 148.021 18.86 147.541 18.86H142.561V27.95H149.131C149.511 27.95 149.841 27.86 150.121 27.68C150.401 27.5 150.631 27.29 150.811 27.05C151.011 26.79 151.151 26.52 151.231 26.24C151.331 25.94 151.381 25.69 151.381 25.49H151.681V29H139.381V28.7ZM153.942 28.7H154.092C154.252 28.7 154.392 28.65 154.512 28.55C154.632 28.43 154.732 28.29 154.812 28.13C154.912 27.97 154.982 27.8 155.022 27.62C155.082 27.44 155.112 27.27 155.112 27.11V11.06C155.112 10.92 155.082 10.76 155.022 10.58C154.982 10.4 154.912 10.23 154.812 10.07C154.732 9.91 154.632 9.78 154.512 9.68C154.392 9.56 154.252 9.5 154.092 9.5H153.942V9.2H158.262V9.5H158.112C157.952 9.5 157.812 9.56 157.692 9.68C157.572 9.78 157.472 9.91 157.392 10.07C157.312 10.23 157.242 10.4 157.182 10.58C157.142 10.76 157.122 10.92 157.122 11.06V27.89H163.692C164.072 27.89 164.402 27.8 164.682 27.62C164.962 27.44 165.192 27.22 165.372 26.96C165.572 26.68 165.712 26.39 165.792 26.09C165.892 25.77 165.942 25.48 165.942 25.22H166.242V29H153.942V28.7ZM167.887 28.7H168.037C168.197 28.7 168.337 28.65 168.457 28.55C168.577 28.43 168.677 28.29 168.757 28.13C168.857 27.97 168.927 27.8 168.967 27.62C169.027 27.44 169.057 27.27 169.057 27.11V11.06C169.057 10.92 169.027 10.76 168.967 10.58C168.927 10.4 168.857 10.23 168.757 10.07C168.677 9.91 168.577 9.78 168.457 9.68C168.337 9.56 168.197 9.5 168.037 9.5H167.887V9.2H172.207V9.5H172.057C171.897 9.5 171.757 9.56 171.637 9.68C171.517 9.78 171.417 9.91 171.337 10.07C171.257 10.23 171.187 10.4 171.127 10.58C171.087 10.76 171.067 10.92 171.067 11.06V27.89H177.637C178.017 27.89 178.347 27.8 178.627 27.62C178.907 27.44 179.137 27.22 179.317 26.96C179.517 26.68 179.657 26.39 179.737 26.09C179.837 25.77 179.887 25.48 179.887 25.22H180.187V29H167.887V28.7Z" fill="#BB8C5F"/>
</svg>
