<svg width="40" height="40" fill="none" xmlns="http://www.w3.org/2000/svg"><path fill="#050402" d="M.5.5h39v39H.5z"/><path fill-rule="evenodd" clip-rule="evenodd" d="M32.456 19.044c-.002 6.556-5.335 11.89-11.892 11.893h-.005c-1.99 0-3.946-.5-5.683-1.448L8.57 31.143l1.688-6.163a11.871 11.871 0 0 1-1.588-5.945c.003-6.557 5.338-11.892 11.893-11.892a11.816 11.816 0 0 1 8.413 3.488 11.82 11.82 0 0 1 3.48 8.413Zm-21.03 9.274 3.742-.982.36.214a9.87 9.87 0 0 0 5.032 1.378h.004c5.448 0 9.882-4.434 9.884-9.884a9.825 9.825 0 0 0-2.892-6.994 9.817 9.817 0 0 0-6.988-2.898c-5.453 0-9.887 4.434-9.889 9.883a9.86 9.86 0 0 0 1.511 5.261l.235.374-.998 3.648Z" fill="#BB8C5F"/><path d="M26.32 22.616c-.074-.124-.272-.199-.57-.348-.297-.148-1.757-.867-2.03-.966-.272-.1-.47-.149-.668.148-.198.298-.768.967-.941 1.166-.174.198-.347.223-.644.074-.297-.149-1.255-.463-2.39-1.475-.883-.788-1.48-1.761-1.653-2.058-.173-.298-.018-.459.13-.607.134-.133.298-.347.446-.52.149-.174.198-.298.297-.496.1-.199.05-.372-.024-.52-.075-.15-.67-1.612-.917-2.207-.24-.58-.486-.501-.668-.51a11.79 11.79 0 0 0-.57-.01c-.198 0-.52.073-.792.371-.273.298-1.04 1.016-1.04 2.479s1.065 2.876 1.213 3.074c.149.198 2.095 3.2 5.076 4.487.71.306 1.263.489 1.695.626.711.226 1.36.194 1.871.118.571-.086 1.758-.72 2.006-1.413.247-.695.247-1.29.173-1.413Z" fill="#BB8C5F"/><path stroke="#BB8C5F" d="M.5.5h39v39H.5z"/></svg>