<svg width="20" height="18" fill="none" xmlns="http://www.w3.org/2000/svg"><path d="M2.744 8.79a4.25 4.25 0 1 1 6.697-5.11h1.118a4.25 4.25 0 1 1 6.697 5.11L10 16.05 2.744 8.792V8.79Zm15.218.71A5.25 5.25 0 1 0 10 2.707 5.25 5.25 0 1 0 2.038 9.5L10 17.46l7.962-7.96Z" fill="#FAF6F2"/><path fill-rule="evenodd" clip-rule="evenodd" d="M3.044 8.667 10 15.624l7.044-7.046.212.213L10 16.049 2.744 8.792V8.79a4.25 4.25 0 1 1 6.697-5.11h1.118a4.25 4.25 0 1 1 6.697 5.11l-.212-.212a3.951 3.951 0 1 0-6.224-4.75l-.087.152H9.267l-.087-.152a3.95 3.95 0 1 0-6.224 4.75l.088.09Zm-1.006.834A5.25 5.25 0 1 1 10 2.706 5.25 5.25 0 1 1 17.962 9.5L10 17.462l-7.962-7.96Zm16.224.122v.003L10 17.886 1.826 9.713A5.55 5.55 0 1 1 10 2.219a5.55 5.55 0 1 1 8.262 7.404Z" fill="#FAF6F2"/></svg>