<svg width="28" height="28" fill="none" xmlns="http://www.w3.org/2000/svg"><path fill="#050402" d="M.5.5h27v27H.5z"/><path fill-rule="evenodd" clip-rule="evenodd" d="M10.702 6.048C11.555 6.01 11.828 6 14.001 6h-.003c2.174 0 2.445.01 3.299.048.851.04 1.433.174 1.943.372a3.91 3.91 0 0 1 1.417.923c.445.444.718.89.923 1.417.197.508.332 1.09.372 1.941.038.854.048 1.126.048 3.3 0 2.172-.01 2.444-.048 3.297-.04.852-.175 1.433-.372 1.942a3.927 3.927 0 0 1-.923 1.417c-.445.445-.89.719-1.416.923-.51.198-1.091.333-1.943.372-.853.039-1.125.048-3.298.048s-2.445-.01-3.299-.048c-.851-.04-1.433-.174-1.942-.372a3.918 3.918 0 0 1-1.416-.923 3.92 3.92 0 0 1-.923-1.417c-.198-.509-.332-1.09-.372-1.942C6.01 16.445 6 16.173 6 14s.01-2.445.048-3.299c.038-.851.173-1.433.372-1.941a3.92 3.92 0 0 1 .923-1.417A3.917 3.917 0 0 1 8.76 6.42c.509-.198 1.09-.333 1.942-.372Zm3.032 1.394h.267c2.136 0 2.389.007 3.233.046.78.035 1.203.166 1.485.275.373.145.64.319.92.599.28.28.453.546.598.92.11.281.24.705.275 1.485.039.843.047 1.096.047 3.231s-.008 2.389-.047 3.232c-.035.78-.166 1.203-.275 1.485a2.47 2.47 0 0 1-.599.919c-.28.28-.546.453-.92.598-.28.11-.704.24-1.484.276-.844.038-1.097.047-3.233.047s-2.39-.009-3.233-.047c-.78-.036-1.203-.166-1.485-.276a2.478 2.478 0 0 1-.92-.598 2.48 2.48 0 0 1-.6-.92c-.109-.281-.24-.705-.275-1.485-.038-.843-.046-1.096-.046-3.233 0-2.136.008-2.388.046-3.231.036-.78.166-1.204.276-1.486.145-.373.319-.64.599-.92.28-.28.546-.453.92-.598.282-.11.705-.24 1.485-.276.738-.034 1.024-.044 2.515-.045v.002h.45ZM18.27 8.77a.96.96 0 1 0 0 1.92.96.96 0 0 0 0-1.92Z" fill="#BB8C5F"/><path fill-rule="evenodd" clip-rule="evenodd" d="M9.892 14a4.109 4.109 0 1 1 8.218 0 4.109 4.109 0 0 1-8.218 0Zm6.775 0a2.667 2.667 0 1 0-5.333 0 2.667 2.667 0 0 0 5.333 0Z" fill="#BB8C5F"/><path stroke="#BB8C5F" d="M.5.5h27v27H.5z"/></svg>