<svg width="40" height="40" fill="none" xmlns="http://www.w3.org/2000/svg"><path fill="#050402" d="M.5.5h39v39H.5z"/><path d="M25.32 16.91c-.09-.734-.316-1.31-.716-1.822-.52-.658-1.183-1.052-2.166-1.285-.64-.156-.899-.138-1.13.074-.216.199-.258.597-.093.855.115.187.25.254.621.328.496.09.838.21 1.15.388.66.383.968.982 1.001 1.95.016.456.055.596.214.757a.68.68 0 0 0 1.038-.115c.082-.133.094-.191.103-.5a4.934 4.934 0 0 0-.022-.63Z" fill="#BB8C5F"/><path d="M27.909 17.74c-.13-2.251-1.009-4.062-2.58-5.336a7.263 7.263 0 0 0-3.13-1.448c-.43-.085-1.22-.155-1.357-.115a.833.833 0 0 0-.39.301c-.085.137-.104.441-.031.617.117.295.336.399.949.452.944.083 1.918.416 2.654.908a5.577 5.577 0 0 1 1.94 2.229c.374.774.603 1.89.597 2.89-.002.36.053.565.198.714.22.23.538.28.82.127.312-.165.385-.453.33-1.34Zm2.865 8.667a2.474 2.474 0 0 0-.22-.441c-.461-.699-2.94-2.643-4.176-3.279-.707-.363-1.23-.485-1.618-.37-.417.117-.637.312-1.336 1.183-.282.349-.571.676-.648.727-.19.133-.564.24-.827.24-.612-.005-1.72-.401-2.573-.923-.663-.404-1.512-1.128-2.164-1.845-.768-.842-1.292-1.584-1.705-2.422-.535-1.077-.67-1.735-.447-2.216.055-.121.128-.25.161-.29.033-.037.377-.32.758-.629.747-.595.867-.731 1.006-1.139.176-.518.128-1.047-.142-1.58-.209-.404-.754-1.286-1.15-1.856-.523-.75-1.826-2.352-2.086-2.569-.469-.382-1.069-.448-1.731-.19-.7.271-2.01 1.33-2.57 2.068-.505.669-.699 1.143-.728 1.768-.026.514.018.727.289 1.385 2.12 5.16 5.282 9.28 9.627 12.55 2.269 1.71 4.622 3.01 7.064 3.9 1.424.518 2.042.543 2.77.117.308-.184 1.07-.966 1.494-1.536.703-.948.963-1.386 1.036-1.735.051-.238.01-.654-.084-.918Z" fill="#BB8C5F"/><path d="M30.544 18.255a10.272 10.272 0 0 0-.706-3.481c-.44-1.146-.886-1.893-1.727-2.904-.796-.947-1.413-1.489-2.393-2.091-1.367-.84-3.031-1.395-4.895-1.628-.636-.082-.78-.076-.975.054-.378.248-.373.864.006 1.108.125.077.237.105.745.172.781.105 1.283.205 1.879.368 2.336.64 4.132 1.948 5.333 3.89 1.006 1.62 1.423 3.24 1.363 5.307-.02.7-.005.822.102.99.204.313.742.375 1.018.116.172-.159.204-.278.238-.876.017-.312.02-.773.012-1.025Z" fill="#BB8C5F"/><path stroke="#BB8C5F" d="M.5.5h39v39H.5z"/></svg>