<svg width="192" height="63" fill="none" xmlns="http://www.w3.org/2000/svg"><path d="M35.196 47.928h2.576V57h.77v-9.072h2.576V47.2h-5.922v.728Zm10.186 5.782h5.026l-.252-.728h-4.522l-.252.728Zm2.492-5.11 1.932 4.676.07.182L51.332 57h.868l-4.326-10.178L43.548 57h.868l1.47-3.598.084-.168 1.904-4.634Zm7.16-.672h2.576V57h.77v-9.072h2.576V47.2h-5.922v.728Zm10.24 0h2.576V57h.77v-9.072h2.576V47.2h-5.922v.728ZM75.625 52.1c0-.821.173-1.55.518-2.184a3.943 3.943 0 0 1 1.442-1.512c.616-.373 1.316-.56 2.1-.56s1.48.187 2.086.56a3.813 3.813 0 0 1 1.442 1.512c.346.635.518 1.363.518 2.184 0 .812-.172 1.54-.518 2.184a3.912 3.912 0 0 1-1.442 1.526c-.606.364-1.302.546-2.086.546-.784 0-1.484-.182-2.1-.546a4.05 4.05 0 0 1-1.442-1.526c-.345-.644-.518-1.372-.518-2.184Zm-.812 0c0 .719.122 1.386.364 2.002a4.918 4.918 0 0 0 1.022 1.596c.439.448.952.798 1.54 1.05a4.955 4.955 0 0 0 1.946.378c.7 0 1.344-.126 1.932-.378a4.714 4.714 0 0 0 1.554-1.05c.439-.457.78-.99 1.022-1.596a5.415 5.415 0 0 0 .364-2.002c0-.719-.121-1.381-.364-1.988a4.732 4.732 0 0 0-1.022-1.596 4.613 4.613 0 0 0-1.554-1.064 4.853 4.853 0 0 0-1.932-.378c-.7 0-1.348.126-1.946.378a4.649 4.649 0 0 0-1.54 1.064 4.73 4.73 0 0 0-1.022 1.596 5.304 5.304 0 0 0-.364 1.988Zm15.29 0c0-.821.173-1.55.519-2.184a3.943 3.943 0 0 1 1.442-1.512c.616-.373 1.316-.56 2.1-.56s1.48.187 2.086.56a3.813 3.813 0 0 1 1.442 1.512c.345.635.518 1.363.518 2.184 0 .812-.173 1.54-.518 2.184a3.912 3.912 0 0 1-1.442 1.526c-.607.364-1.302.546-2.086.546-.784 0-1.484-.182-2.1-.546a4.05 4.05 0 0 1-1.442-1.526c-.346-.644-.518-1.372-.518-2.184Zm-.811 0c0 .719.121 1.386.364 2.002a4.918 4.918 0 0 0 1.022 1.596c.438.448.952.798 1.54 1.05a4.955 4.955 0 0 0 1.946.378c.7 0 1.344-.126 1.932-.378a4.714 4.714 0 0 0 1.554-1.05c.438-.457.78-.99 1.022-1.596a5.415 5.415 0 0 0 .364-2.002c0-.719-.122-1.381-.364-1.988a4.732 4.732 0 0 0-1.022-1.596 4.613 4.613 0 0 0-1.554-1.064 4.853 4.853 0 0 0-1.932-.378c-.7 0-1.349.126-1.946.378a4.649 4.649 0 0 0-1.54 1.064c-.439.448-.78.98-1.022 1.596a5.304 5.304 0 0 0-.364 1.988Zm22.806 2.072-.63.392c.158.457.382.882.672 1.274.289.392.648.705 1.078.938.429.233.928.35 1.498.35.401 0 .774-.06 1.12-.182.345-.13.644-.313.896-.546.261-.243.462-.527.602-.854a2.6 2.6 0 0 0 .224-1.092c0-.43-.075-.798-.224-1.106a2.616 2.616 0 0 0-.588-.812 3.353 3.353 0 0 0-.784-.56 8.16 8.16 0 0 0-.84-.378 8.03 8.03 0 0 1-1.316-.588c-.355-.215-.621-.453-.798-.714-.178-.261-.266-.574-.266-.938 0-.439.154-.803.462-1.092.308-.299.746-.448 1.316-.448.429 0 .788.084 1.078.252.289.159.527.36.714.602.196.243.345.49.448.742l.672-.378a3.52 3.52 0 0 0-.574-.924 3.046 3.046 0 0 0-.952-.742c-.374-.196-.822-.294-1.344-.294-.504 0-.957.103-1.358.308a2.212 2.212 0 0 0-.938.84 2.258 2.258 0 0 0-.336 1.232c0 .42.079.78.238 1.078.168.299.382.555.644.77.261.205.541.383.84.532.308.14.602.261.882.364.373.14.728.303 1.064.49.345.177.625.41.84.7.214.29.322.672.322 1.148 0 .541-.182.99-.546 1.344-.355.345-.85.518-1.484.518-.467 0-.868-.098-1.204-.294a2.824 2.824 0 0 1-.854-.812 5.704 5.704 0 0 1-.574-1.12Zm11.177-2.142h6.608v-.728h-6.608v.728Zm6.09-4.83V57h.784v-9.8h-.784Zm-6.496 0V57h.77v-9.8h-.77Zm13.391 4.9c0-.821.173-1.55.518-2.184a3.944 3.944 0 0 1 1.442-1.512c.616-.373 1.316-.56 2.1-.56s1.479.187 2.086.56a3.81 3.81 0 0 1 1.442 1.512c.345.635.518 1.363.518 2.184 0 .812-.173 1.54-.518 2.184a3.91 3.91 0 0 1-1.442 1.526c-.607.364-1.302.546-2.086.546-.784 0-1.484-.182-2.1-.546a4.05 4.05 0 0 1-1.442-1.526c-.345-.644-.518-1.372-.518-2.184Zm-.812 0c0 .719.121 1.386.364 2.002a4.92 4.92 0 0 0 1.022 1.596c.439.448.952.798 1.54 1.05a4.954 4.954 0 0 0 1.946.378c.7 0 1.344-.126 1.932-.378a4.72 4.72 0 0 0 1.554-1.05 4.92 4.92 0 0 0 1.022-1.596 5.407 5.407 0 0 0 .364-2.002c0-.719-.121-1.381-.364-1.988a4.73 4.73 0 0 0-1.022-1.596 4.62 4.62 0 0 0-1.554-1.064 4.853 4.853 0 0 0-1.932-.378c-.7 0-1.349.126-1.946.378a4.653 4.653 0 0 0-1.54 1.064 4.73 4.73 0 0 0-1.022 1.596 5.298 5.298 0 0 0-.364 1.988Zm15.039-4.9V57h.77v-9.8h-.77Zm.434.728h1.862c.718 0 1.302.187 1.75.56.448.364.672.9.672 1.61 0 .7-.224 1.237-.672 1.61-.448.373-1.032.56-1.75.56h-1.862v.728h1.862c.616 0 1.162-.112 1.638-.336a2.74 2.74 0 0 0 1.148-1.008c.28-.439.42-.957.42-1.554 0-.607-.14-1.125-.42-1.554-.28-.43-.663-.76-1.148-.994-.476-.233-1.022-.35-1.638-.35h-1.862v.728ZM.113 38 3 40.887 5.887 38 3 35.113.113 38Zm191.774 0L189 35.113 186.113 38 189 40.887 191.887 38ZM3 38.5h186v-1H3v1Zm25.49-9.8h.15c.14 0 .27-.06.39-.18s.22-.26.3-.42c.1-.16.17-.33.21-.51.04-.2.06-.38.06-.54V11.27l-7.74 18.06-7.35-17.13v14.85c0 .16.02.34.06.54.04.18.1.35.18.51.1.16.21.3.33.42.12.12.26.18.42.18h.15v.3h-3.27v-.3h.15c.14 0 .27-.06.39-.18s.22-.26.3-.42c.08-.16.14-.33.18-.51.04-.2.06-.38.06-.54V11.06c0-.14-.02-.3-.06-.48-.04-.18-.1-.35-.18-.51-.08-.16-.18-.29-.3-.39a.545.545 0 0 0-.39-.18h-.15v-.3h3.06l6.96 16.41L29.36 9.2h3.39v.3h-.15c-.16 0-.3.06-.42.18-.12.1-.23.23-.33.39-.08.16-.14.33-.18.51-.04.18-.06.34-.06.48v15.99c0 .16.02.34.06.54.04.18.1.35.18.51.1.16.21.3.33.42.12.12.26.18.42.18h.15v.3h-4.26v-.3Zm11.26 0h.15v.3h-4.23v-.3h.15c.14 0 .27-.06.39-.18s.22-.26.3-.42c.1-.16.17-.33.21-.51.04-.2.06-.38.06-.54V11.06c0-.14-.02-.3-.06-.48-.04-.18-.11-.35-.21-.51-.08-.16-.18-.29-.3-.39a.545.545 0 0 0-.39-.18h-.15v-.3h5.22c2 0 3.54.39 4.62 1.17 1.1.78 1.65 1.93 1.65 3.45 0 .76-.13 1.43-.39 2.01-.24.56-.57 1.05-.99 1.47-.42.4-.92.73-1.5.99-.56.24-1.16.42-1.8.54l2.16 3.3c.52.8 1.05 1.59 1.59 2.37.54.76 1.07 1.55 1.59 2.37.14.2.29.41.45.63.18.22.36.42.54.6.2.18.4.33.6.45.22.1.44.15.66.15v.3h-1.29c-.8 0-1.46-.19-1.98-.57-.5-.4-.92-.86-1.26-1.38-.9-1.32-1.8-2.66-2.7-4.02-.88-1.36-1.76-2.7-2.64-4.02-.22-.02-.46-.04-.72-.06-.24-.04-.47-.08-.69-.12v8.22c0 .16.02.34.06.54.04.18.1.35.18.51.1.16.2.3.3.42.12.12.26.18.42.18Zm-.96-18.48v7.62h.15c.16.02.41.04.75.06h1.32c.42 0 .86-.06 1.32-.18.48-.14.92-.36 1.32-.66.42-.32.76-.73 1.02-1.23.28-.5.42-1.13.42-1.89s-.15-1.38-.45-1.86a3 3 0 0 0-1.2-1.14c-.5-.28-1.11-.47-1.83-.57-.72-.1-1.51-.15-2.37-.15h-.45Zm13.291 17.49c0-.4.13-.74.39-1.02.28-.28.62-.42 1.02-.42s.74.14 1.02.42c.28.28.42.62.42 1.02s-.14.74-.42 1.02c-.28.26-.62.39-1.02.39s-.74-.13-1.02-.39c-.26-.28-.39-.62-.39-1.02Zm13.589.99h.15c.14 0 .27-.06.39-.18s.22-.26.3-.42c.1-.16.17-.33.21-.51.04-.2.06-.38.06-.54V11.06c0-.14-.02-.3-.06-.48-.04-.18-.1-.35-.18-.51-.08-.16-.18-.29-.3-.39a.576.576 0 0 0-.42-.18h-.15v-.3h5.79c1.58 0 3 .28 4.26.84 1.26.54 2.32 1.28 3.18 2.22.88.92 1.55 1.98 2.01 3.18.46 1.2.69 2.45.69 3.75 0 1.22-.22 2.42-.66 3.6-.44 1.16-1.1 2.2-1.98 3.12-.88.92-1.98 1.67-3.3 2.25-1.32.56-2.85.84-4.59.84h-5.4v-.3Zm13.89-9.06c0-1.28-.23-2.49-.69-3.63a8.814 8.814 0 0 0-1.95-2.97c-.82-.86-1.8-1.54-2.94-2.04-1.12-.5-2.34-.75-3.66-.75h-1.53v17.7h1.59c1.08 0 2.16-.16 3.24-.48 1.1-.34 2.09-.85 2.97-1.53.88-.7 1.59-1.57 2.13-2.61.56-1.04.84-2.27.84-3.69Zm8.706 9.06h.15v.3h-4.23v-.3h.15c.14 0 .27-.06.39-.18s.22-.26.3-.42c.1-.16.17-.33.21-.51.04-.2.06-.38.06-.54V11.06c0-.14-.02-.3-.06-.48-.04-.18-.11-.35-.21-.51-.08-.16-.18-.29-.3-.39a.545.545 0 0 0-.39-.18h-.15v-.3h5.22c2 0 3.54.39 4.62 1.17 1.1.78 1.65 1.93 1.65 3.45 0 .76-.13 1.43-.39 2.01-.24.56-.57 1.05-.99 1.47-.42.4-.92.73-1.5.99-.56.24-1.16.42-1.8.54l2.16 3.3c.52.8 1.05 1.59 1.59 2.37.54.76 1.07 1.55 1.59 2.37.14.2.29.41.45.63.18.22.36.42.54.6.2.18.4.33.6.45.22.1.44.15.66.15v.3h-1.29c-.8 0-1.46-.19-1.98-.57-.5-.4-.92-.86-1.26-1.38-.9-1.32-1.8-2.66-2.7-4.02-.88-1.36-1.76-2.7-2.64-4.02-.22-.02-.46-.04-.72-.06-.24-.04-.47-.08-.69-.12v8.22c0 .16.02.34.06.54.04.18.1.35.18.51.1.16.2.3.3.42.12.12.26.18.42.18Zm-.96-18.48v7.62h.15c.16.02.41.04.75.06h1.32c.42 0 .86-.06 1.32-.18.48-.14.92-.36 1.32-.66.42-.32.76-.73 1.02-1.23.28-.5.42-1.13.42-1.89s-.15-1.38-.45-1.86a3 3 0 0 0-1.2-1.14c-.5-.28-1.11-.47-1.83-.57-.72-.1-1.51-.15-2.37-.15h-.45Zm13.201-1.02h4.29v.3h-.15c-.14 0-.27.06-.39.18-.12.1-.22.23-.3.39-.08.14-.15.31-.21.51-.04.18-.06.34-.06.48v15.99c0 .16.02.34.06.54.04.18.1.35.18.51.1.16.2.3.3.42.12.12.26.18.42.18h.15v.3h-4.29v-.3h.15c.16 0 .3-.05.42-.15.12-.12.22-.26.3-.42.1-.18.17-.36.21-.54.04-.2.06-.38.06-.54V11.06c0-.14-.02-.3-.06-.48-.04-.18-.11-.35-.21-.51-.08-.16-.18-.29-.3-.39a.576.576 0 0 0-.42-.18h-.15v-.3Zm19.325 14.49c0 1-.2 1.86-.6 2.58-.4.7-.92 1.27-1.56 1.71-.62.44-1.33.76-2.13.96-.78.2-1.56.3-2.34.3-.8 0-1.49-.08-2.07-.24-.58-.16-1.11-.31-1.59-.45-.32-.1-.61-.18-.87-.24a2.64 2.64 0 0 0-.78-.12v-3.42h.3c0 .76.19 1.37.57 1.83.4.44.86.78 1.38 1.02.52.24 1.04.4 1.56.48.52.06.9.09 1.14.09.86 0 1.6-.12 2.22-.36.62-.26 1.13-.59 1.53-.99.4-.42.69-.88.87-1.38.2-.5.3-1.01.3-1.53 0-.66-.14-1.21-.42-1.65-.28-.46-.65-.86-1.11-1.2-.44-.34-.95-.63-1.53-.87-.58-.24-1.17-.48-1.77-.72-.68-.26-1.35-.53-2.01-.81a8.03 8.03 0 0 1-1.77-1.02c-.52-.42-.94-.91-1.26-1.47-.32-.58-.48-1.29-.48-2.13 0-.88.17-1.64.51-2.28.34-.66.79-1.2 1.35-1.62.58-.42 1.23-.73 1.95-.93.74-.22 1.49-.33 2.25-.33.52 0 1.01.04 1.47.12.46.06.9.14 1.32.24.34.08.67.15.99.21.32.04.63.06.93.06v3.09h-.3c-.04-1.04-.45-1.74-1.23-2.1-.78-.38-1.86-.57-3.24-.57-.8 0-1.46.14-1.98.42-.5.26-.9.59-1.2.99-.3.38-.51.8-.63 1.26-.1.44-.15.83-.15 1.17 0 .56.12 1.04.36 1.44.26.4.6.75 1.02 1.05.42.3.9.57 1.44.81.56.24 1.14.47 1.74.69.68.26 1.37.54 2.07.84.7.3 1.32.67 1.86 1.11.56.44 1.01.98 1.35 1.62.36.64.54 1.42.54 2.34Zm6.697 5.01h.15v.3h-4.29v-.3h.15c.16 0 .3-.06.42-.18s.22-.26.3-.42c.1-.16.17-.33.21-.51.04-.2.06-.38.06-.54V11.06c0-.14-.02-.3-.06-.48-.04-.18-.11-.35-.21-.51-.08-.16-.18-.29-.3-.39a.545.545 0 0 0-.39-.18h-.15v-.3h4.29v.3h-.15c-.16 0-.3.06-.42.18-.12.1-.23.23-.33.39-.08.16-.15.33-.21.51-.04.18-.06.34-.06.48v6.96l7.62-7.56c.12-.14.18-.3.18-.48 0-.32-.12-.48-.36-.48h-.15v-.3h3.66v.3h-.15c-.28 0-.57.1-.87.3-.3.2-.6.45-.9.75l-6.3 6.27 6.63 10.05c.02.04.11.16.27.36.16.2.35.41.57.63.24.22.5.42.78.6.3.16.6.24.9.24v.3h-.72c-.6 0-1.11-.03-1.53-.09-.4-.08-.75-.2-1.05-.36-.3-.16-.57-.36-.81-.6-.22-.24-.45-.54-.69-.9l-5.82-8.79-1.26 1.29v7.5c0 .16.02.33.06.51.06.18.13.36.21.54.08.16.18.3.3.42s.26.18.42.18Zm12.852 0h.15c.16 0 .3-.05.42-.15.12-.12.22-.26.3-.42.1-.16.17-.33.21-.51.06-.18.09-.35.09-.51V11.06c0-.14-.03-.3-.09-.48-.04-.18-.11-.35-.21-.51-.08-.16-.18-.29-.3-.39a.576.576 0 0 0-.42-.18h-.15v-.3h11.55v2.79h-.3c-.04-.46-.22-.86-.54-1.2-.32-.36-.82-.54-1.5-.54h-6.03v7.59h4.98c.46 0 .84-.14 1.14-.42.32-.28.48-.61.48-.99h.3v3.75h-.3c0-.36-.15-.67-.45-.93-.3-.26-.69-.39-1.17-.39h-4.98v9.09h6.57c.38 0 .71-.09.99-.27.28-.18.51-.39.69-.63.2-.26.34-.53.42-.81.1-.3.15-.55.15-.75h.3V29h-12.3v-.3Zm14.561 0h.15c.16 0 .3-.05.42-.15.12-.12.22-.26.3-.42.1-.16.17-.33.21-.51.06-.18.09-.35.09-.51V11.06c0-.14-.03-.3-.09-.48-.04-.18-.11-.35-.21-.51-.08-.16-.18-.29-.3-.39a.576.576 0 0 0-.42-.18h-.15v-.3h4.32v.3h-.15c-.16 0-.3.06-.42.18-.12.1-.22.23-.3.39-.08.16-.15.33-.21.51-.04.18-.06.34-.06.48v16.83h6.57c.38 0 .71-.09.99-.27.28-.18.51-.4.69-.66.2-.28.34-.57.42-.87.1-.32.15-.61.15-.87h.3V29h-12.3v-.3Zm13.945 0h.15c.16 0 .3-.05.42-.15.12-.12.22-.26.3-.42.1-.16.17-.33.21-.51.06-.18.09-.35.09-.51V11.06c0-.14-.03-.3-.09-.48-.04-.18-.11-.35-.21-.51-.08-.16-.18-.29-.3-.39a.576.576 0 0 0-.42-.18h-.15v-.3h4.32v.3h-.15c-.16 0-.3.06-.42.18-.12.1-.22.23-.3.39-.08.16-.15.33-.21.51-.04.18-.06.34-.06.48v16.83h6.57c.38 0 .71-.09.99-.27.28-.18.51-.4.69-.66.2-.28.34-.57.42-.87.1-.32.15-.61.15-.87h.3V29h-12.3v-.3Z" fill="#BB8C5F"/></svg>